<?xml version="1.0" standalone="no"?><!DOCTYPE svg PUBLIC "-//W3C//DTD SVG 1.1//EN" "http://www.w3.org/Graphics/SVG/1.1/DTD/svg11.dtd"><svg t="1584367941017" class="icon" viewBox="0 0 1024 1024" version="1.1" xmlns="http://www.w3.org/2000/svg" p-id="1636" xmlns:xlink="http://www.w3.org/1999/xlink" width="200" height="200"><defs><style type="text/css"></style></defs><path d="M770.806 524.885c-40.482-7.849-20.829-29.615-20.829-29.615s39.64-65.33-7.807-112.786c-58.813-58.813-201.735 7.474-201.735 7.474-54.576 17.009-40.097-7.682-32.362-49.664 0-49.476-16.957-133.167-162.355-83.733C200.484 306.276 75.769 480.416 75.769 480.416-10.962 596.19 0.509 685.606 0.509 685.606 22.181 883.073 231.994 937.245 395.172 950.12c171.714 13.43 403.417-59.207 473.681-208.447 70.242-149.523-57.429-208.669-98.047-216.788zM407.882 894.451C237.458 902.402 99.679 816.953 99.679 703.24c0-113.9 137.779-205.253 308.203-213.092 170.579-7.849 308.607 62.404 308.607 176.023 0 113.714-138.028 220.493-308.607 228.28z" fill="#2c2c2c" p-id="1637"></path><path d="M373.885 565.148c-171.423 20.049-151.614 180.613-151.614 180.613s-1.738 50.861 45.978 76.77c100.306 54.285 203.557 21.424 255.75-45.957 52.224-67.381 21.568-231.37-150.114-211.426z m-43.231 225.354c-31.988 3.748-57.793-14.688-57.793-41.492 0-26.617 22.911-54.555 54.93-57.887 36.756-3.518 60.708 17.686 60.708 44.406 0 26.69-25.972 51.33-57.845 54.973z m101.055-86.064c-10.847 8.129-24.191 6.963-29.917-2.76-5.985-9.492-3.747-24.68 7.234-32.633 12.71-9.441 25.909-6.746 31.635 2.758 5.746 9.672 1.623 24.244-8.952 32.635zM717.208 72.304c-23.452 0-42.419 18.997-42.419 42.429 0 23.421 18.967 42.418 42.419 42.418 122.384 0 221.949 99.576 221.949 221.98 0 13.637-1.238 27.335-3.705 40.586l0.499 0.115c-0.166 1.603-0.458 3.154-0.458 4.799 0 23.421 18.956 42.418 42.408 42.418 19.777 0 36.235-13.584 40.93-31.853h0.053c0-0.063 0-0.188 0.03-0.281 0.792-3.154 1.322-6.412 1.343-9.837 2.301-15.187 3.737-30.541 3.737-45.947 0-169.183-137.612-306.827-306.786-306.827z" fill="#2c2c2c" p-id="1638"></path><path d="M717.208 209.229c-19.518 0-35.351 15.801-35.351 35.351 0 19.497 15.833 35.34 35.351 35.34 54.701 0 99.223 44.521 99.223 99.212 0 4.352-0.271 8.609-0.791 12.752l0.812 0.104c-0.167 1.447-0.812 2.665-0.812 4.143 0 19.497 15.812 35.35 35.34 35.35 17.873 0 32.009-13.47 34.403-30.708l0.374 0.062c0.094-0.885 0.042-1.821 0.167-2.706 0.021-0.667 0.406-1.27 0.406-1.999 0-0.385-0.219-0.718-0.219-1.052 0.499-5.288 1.02-10.544 1.02-15.947 0-93.684-76.228-169.902-169.923-169.902z" fill="#2c2c2c" p-id="1639"></path></svg>