<?xml version="1.0" standalone="no"?><!DOCTYPE svg PUBLIC "-//W3C//DTD SVG 1.1//EN" "http://www.w3.org/Graphics/SVG/1.1/DTD/svg11.dtd"><svg t="1584367831670" class="icon" viewBox="0 0 1024 1024" version="1.1" xmlns="http://www.w3.org/2000/svg" p-id="1143" xmlns:xlink="http://www.w3.org/1999/xlink" width="200" height="200"><defs><style type="text/css"></style></defs><path d="M817.739 355.231c-3.597 271.289-177.08 457.108-436.05 468.777-106.796 4.89-184.166-29.608-251.499-72.383 78.932 12.598 176.807-18.953 229.153-63.763-77.37-7.526-123.178-46.908-144.612-110.285 22.357 3.865 45.91 2.84 67.15-1.658-69.817-23.371-119.673-66.522-122.249-156.941 19.592 8.92 40.016 17.305 67.15 18.958-52.25-29.72-90.886-138.363-46.635-210.204 77.547 84.998 170.827 154.359 323.995 163.742-38.455-164.386 179.383-253.528 270.553-143.044 38.54-7.456 69.91-22.078 100.086-37.993-12.42 38.175-36.339 64.853-65.496 86.195 32.007-4.321 60.338-12.142 84.541-24.101-15.013 31.186-47.842 59.152-76.087 82.7z" fill="#2C2C2C" p-id="1144"></path></svg>